<svg width="514" height="449" viewBox="0 0 514 449" fill="none" xmlns="http://www.w3.org/2000/svg">
<path d="M473.436 40.2895C460.923 27.7701 446.065 17.8389 429.713 11.0631C413.36 4.28731 395.832 0.799805 378.131 0.799805C360.431 0.799805 342.903 4.28731 326.55 11.0631C310.197 17.8389 295.34 27.7701 282.826 40.2895L256.856 66.2595L230.886 40.2895C205.61 15.0131 171.328 0.812906 135.581 0.812907C99.8351 0.812907 65.5529 15.0131 40.2764 40.2895C15 65.566 0.799805 99.8482 0.799805 135.595C0.799804 171.341 15 205.623 40.2764 230.9L256.856 447.479L473.436 230.9C485.956 218.386 495.887 203.528 502.663 187.176C509.439 170.823 512.926 153.295 512.926 135.595C512.926 117.894 509.439 100.366 502.663 84.0133C495.887 67.6606 485.956 52.8031 473.436 40.2895Z" fill="#C3A36E" stroke="#6B0606" stroke-width="1.6" stroke-linecap="round" stroke-linejoin="round"/>
</svg>
